<mxfile host="app.diagrams.net" modified="2023-09-25T04:36:31.131Z" agent="Mozilla/5.0 (Windows NT 10.0; Win64; x64) AppleWebKit/537.36 (KHTML, like Gecko) Chrome/116.0.0.0 Safari/537.36" version="21.8.2" etag="IQUFLO_xFJmBvAyzsw5k" type="github">
  <diagram name="Seite-1" id="xXL9GvHRlmES7SnU6yQh">
    <mxGraphModel>
      <root>
        <mxCell id="0" />
        <mxCell id="1" parent="0" />
      </root>
    </mxGraphModel>
  </diagram>
</mxfile>
